<svg width="17" height="17" viewBox="0 0 17 17" fill="none" xmlns="http://www.w3.org/2000/svg">
<g id="Group">
<path id="Vector" d="M13.5 15.7917H2.5C1.41667 15.7917 0.5 14.9167 0.5 13.7917V4.20837C0.5 3.12504 1.375 2.20837 2.5 2.20837H13.5417C14.625 2.20837 15.5417 3.08337 15.5417 4.20837V13.7917C15.5 14.875 14.625 15.7917 13.5 15.7917Z" stroke="#838383" stroke-miterlimit="10"/>
<path id="Vector_2" d="M15.5 6.33337H0.5" stroke="#838383" stroke-miterlimit="10"/>
<g id="Group_2">
<path id="Vector_3" d="M4.66669 1.5V2.91667" stroke="#838383" stroke-width="1.5" stroke-miterlimit="10" stroke-linecap="round"/>
<path id="Vector_4" d="M11.3334 1.5V2.91667" stroke="#838383" stroke-width="1.5" stroke-miterlimit="10" stroke-linecap="round"/>
</g>
<g id="Group_3">
<path id="Vector_5" d="M3.95831 10.0833C4.30349 10.0833 4.58331 9.80343 4.58331 9.45825C4.58331 9.11307 4.30349 8.83325 3.95831 8.83325C3.61314 8.83325 3.33331 9.11307 3.33331 9.45825C3.33331 9.80343 3.61314 10.0833 3.95831 10.0833Z" fill="#838383"/>
<path id="Vector_6" d="M8.08331 10.0833C8.42849 10.0833 8.70831 9.80343 8.70831 9.45825C8.70831 9.11307 8.42849 8.83325 8.08331 8.83325C7.73814 8.83325 7.45831 9.11307 7.45831 9.45825C7.45831 9.80343 7.73814 10.0833 8.08331 10.0833Z" fill="#838383"/>
<path id="Vector_7" d="M12.0416 9.91663C12.3868 9.91663 12.6666 9.6368 12.6666 9.29163C12.6666 8.94645 12.3868 8.66663 12.0416 8.66663C11.6964 8.66663 11.4166 8.94645 11.4166 9.29163C11.4166 9.6368 11.6964 9.91663 12.0416 9.91663Z" fill="#838383"/>
<path id="Vector_8" d="M3.95831 13.2083C4.30349 13.2083 4.58331 12.9284 4.58331 12.5833C4.58331 12.2381 4.30349 11.9583 3.95831 11.9583C3.61314 11.9583 3.33331 12.2381 3.33331 12.5833C3.33331 12.9284 3.61314 13.2083 3.95831 13.2083Z" fill="#838383"/>
<path id="Vector_9" d="M8.08331 13.2083C8.42849 13.2083 8.70831 12.9284 8.70831 12.5833C8.70831 12.2381 8.42849 11.9583 8.08331 11.9583C7.73814 11.9583 7.45831 12.2381 7.45831 12.5833C7.45831 12.9284 7.73814 13.2083 8.08331 13.2083Z" fill="#838383"/>
<path id="Vector_10" d="M12.0416 13C12.3868 13 12.6666 12.7202 12.6666 12.375C12.6666 12.0298 12.3868 11.75 12.0416 11.75C11.6964 11.75 11.4166 12.0298 11.4166 12.375C11.4166 12.7202 11.6964 13 12.0416 13Z" fill="#838383"/>
</g>
</g>
</svg>
