<svg width="17" height="17" viewBox="0 0 17 17" fill="none" xmlns="http://www.w3.org/2000/svg">
<g id="Group">
<path id="Vector" d="M13.5 15.7916H2.5C1.41667 15.7916 0.5 14.9166 0.5 13.7916V4.20831C0.5 3.12498 1.375 2.20831 2.5 2.20831H13.5417C14.625 2.20831 15.5417 3.08331 15.5417 4.20831V13.7916C15.5 14.875 14.625 15.7916 13.5 15.7916Z" stroke="#838383" stroke-miterlimit="10"/>
<path id="Vector_2" d="M15.5 6.33331H0.5" stroke="#838383" stroke-miterlimit="10"/>
<g id="Group_2">
<path id="Vector_3" d="M4.66666 1.5V2.91667" stroke="#838383" stroke-width="1.5" stroke-miterlimit="10" stroke-linecap="round"/>
<path id="Vector_4" d="M11.3333 1.5V2.91667" stroke="#838383" stroke-width="1.5" stroke-miterlimit="10" stroke-linecap="round"/>
</g>
<g id="Group_3">
<path id="Vector_5" d="M3.95834 10.0834C4.30352 10.0834 4.58334 9.80355 4.58334 9.45837C4.58334 9.1132 4.30352 8.83337 3.95834 8.83337C3.61317 8.83337 3.33334 9.1132 3.33334 9.45837C3.33334 9.80355 3.61317 10.0834 3.95834 10.0834Z" fill="#838383"/>
<path id="Vector_6" d="M8.08334 10.0834C8.42852 10.0834 8.70834 9.80355 8.70834 9.45837C8.70834 9.1132 8.42852 8.83337 8.08334 8.83337C7.73817 8.83337 7.45834 9.1132 7.45834 9.45837C7.45834 9.80355 7.73817 10.0834 8.08334 10.0834Z" fill="#838383"/>
<path id="Vector_7" d="M12.0417 9.91669C12.3869 9.91669 12.6667 9.63686 12.6667 9.29169C12.6667 8.94651 12.3869 8.66669 12.0417 8.66669C11.6965 8.66669 11.4167 8.94651 11.4167 9.29169C11.4167 9.63686 11.6965 9.91669 12.0417 9.91669Z" fill="#838383"/>
<path id="Vector_8" d="M3.95834 13.2084C4.30352 13.2084 4.58334 12.9286 4.58334 12.5834C4.58334 12.2382 4.30352 11.9584 3.95834 11.9584C3.61317 11.9584 3.33334 12.2382 3.33334 12.5834C3.33334 12.9286 3.61317 13.2084 3.95834 13.2084Z" fill="#838383"/>
<path id="Vector_9" d="M8.08334 13.2084C8.42852 13.2084 8.70834 12.9286 8.70834 12.5834C8.70834 12.2382 8.42852 11.9584 8.08334 11.9584C7.73817 11.9584 7.45834 12.2382 7.45834 12.5834C7.45834 12.9286 7.73817 13.2084 8.08334 13.2084Z" fill="#838383"/>
<path id="Vector_10" d="M12.0417 13C12.3869 13 12.6667 12.7202 12.6667 12.375C12.6667 12.0298 12.3869 11.75 12.0417 11.75C11.6965 11.75 11.4167 12.0298 11.4167 12.375C11.4167 12.7202 11.6965 13 12.0417 13Z" fill="#838383"/>
</g>
</g>
</svg>
