<svg width="144" height="19" viewBox="0 0 144 19" fill="none" xmlns="http://www.w3.org/2000/svg">
<path id="Line" fill-rule="evenodd" clip-rule="evenodd" d="M108.564 0.0760708C88.3192 0.292064 82.5307 0.432572 71.2979 0.981059C59.6571 1.54946 51.3264 2.11923 38.1083 3.25104C35.044 3.51341 31.763 3.76241 27.9165 4.02443C13.7869 4.98689 11.0373 5.24336 6.46954 6.02457C4.20635 6.41172 2.2491 6.67964 1.15211 6.75267C0.176805 6.81751 0 6.85835 0 7.01868C0 7.16037 1.55987 7.28452 2.41305 7.21067C2.7188 7.1843 3.54717 7.11963 4.25394 7.06716C4.96072 7.01459 6.51607 6.87354 7.71028 6.75367C10.5224 6.47129 11.8726 6.38225 16.7056 6.16044C24.8304 5.78757 30.968 5.42925 38.5071 4.88767C41.2854 4.68805 44.9744 4.42304 46.7048 4.29872C59.8285 3.35571 75.8593 2.51484 85.655 2.25574C97.5422 1.94116 134.445 1.66305 133.822 1.8926C133.575 1.98363 129.352 2.66071 126.821 3.01522C124.495 3.34089 120.611 3.81061 115.831 4.34391C113.565 4.59692 110.454 4.94706 108.919 5.12204C103.151 5.77948 101.251 5.98337 97.9737 6.29704C82.8764 7.74187 72.9039 9.00091 59.0235 11.2143C50.773 12.5299 44.0106 14.0402 36.4639 16.2528C32.1733 17.5108 31.7553 17.7342 32.1776 18.5441C32.4524 19.071 34.6173 19.1393 38.9838 18.7587C46.9636 18.0633 54.4623 17.5239 61.7265 17.1228C66.283 16.8712 66.8866 16.8291 71.5194 16.4385C73.2498 16.2928 76.2409 16.0796 78.1662 15.965L81.6669 15.7566L77.0141 15.6745C69.9637 15.55 62.4005 15.5576 59.9097 15.6916C51.6635 16.1354 47.1782 16.477 39.8519 17.219C38.1057 17.3959 36.6325 17.5254 36.5781 17.5069C36.0534 17.3273 47.7967 14.6148 53.3989 13.6215C66.0452 11.3791 79.0682 9.706 99.0815 7.75233C100.909 7.5739 104.578 7.18357 107.235 6.885C109.891 6.58634 114.079 6.11615 116.54 5.83995C126.015 4.77708 128.838 4.3812 137.943 2.83833C143.775 1.85012 143.806 1.84167 143.965 1.19178C144.14 0.477228 143.672 0.153012 142.334 0.0603398C141.062 -0.0277855 117.256 -0.0166926 108.564 0.0760708ZM82.0446 15.6845C82.1548 15.7063 82.3144 15.7054 82.3991 15.6827C82.4838 15.66 82.3936 15.6421 82.1986 15.6431C82.0036 15.6441 81.9343 15.6628 82.0446 15.6845Z" fill="#047FFA"/>
</svg>
