<svg width="107" height="45" viewBox="0 0 107 45" fill="none" xmlns="http://www.w3.org/2000/svg">
<g id="TripTalk">
<g id="TripTalk_2">
<g id="Vector">
<path d="M37.9452 1.41216C37.2768 1.37062 36.5249 1.37062 35.8565 1.37062C17.3505 1.37062 4.06621 9.09596 3.52315 13.9139C3.23073 16.1983 7.11574 17.4443 7.40816 17.6104C7.40816 17.6104 7.36639 17.652 7.28284 17.652C4.85992 17.6104 0.766038 16.5306 0.849587 13.374C1.05846 5.64863 17.6011 0 34.102 0C34.8957 0 35.6476 -6.34378e-07 36.4413 0.0415334C44.0025 0.290738 51.3965 2.2013 54.1954 3.69653C54.6967 3.94573 54.4043 4.15341 54.0283 4.0288C53.3599 3.655 46.6343 1.7029 37.9452 1.41216Z" fill="#047FFA"/>
<path d="M22.6976 8.63908C24.3685 6.52085 25.7471 5.10869 26.7497 4.15341C27.794 3.15659 28.6295 2.53358 29.2561 2.53358C30.5511 2.53358 32.055 3.53039 32.3892 5.02562C32.1386 4.69335 31.8044 4.61028 31.512 4.61028C30.6765 4.61028 29.089 5.89784 27.0839 8.26528C20.9848 15.4922 10.8754 30.7767 11.1678 33.1442C12.0033 33.1026 12.8388 32.7704 13.8832 32.1058C13.7996 32.7704 11.3349 34.5563 10.3741 34.5979C9.74752 34.6394 9.12091 34.2241 9.03736 33.2272C8.82849 29.863 16.515 16.5306 22.6976 8.63908Z" fill="#047FFA"/>
<path d="M29.6321 13.7478C29.841 13.6232 30.0081 13.5816 30.1334 13.5816C31.0107 13.5816 32.3474 14.9938 32.3474 15.866C32.3474 15.9906 32.2221 15.8245 31.9715 15.7829C31.4284 15.7414 30.1752 17.1536 29.089 18.5657C28.1282 19.8533 26.875 21.5146 26.1231 22.8437C28.0447 20.3932 31.5955 17.4028 34.6868 15.1599C36.1071 14.1631 37.1515 13.5401 37.9034 13.4986C38.2794 13.457 39.7833 14.9938 39.5326 15.2845C38.7389 16.1152 35.7729 18.6903 34.5615 21.5146C36.2742 21.39 38.7807 19.7702 40.9947 17.8181C41.0365 17.7766 41.2454 17.735 41.2872 17.8181C40.6605 18.6903 36.316 22.6776 33.8513 22.6776C33.2247 22.6776 32.1386 21.4316 32.1386 21.0162C32.1386 20.0194 33.3083 17.9427 34.2273 16.8628C30.9271 18.7734 29.2561 20.2271 26.7915 22.8853C24.9534 24.8374 22.8229 27.994 23.6166 28.3262C22.5722 28.5754 21.695 27.454 21.4443 26.4572C21.3608 26.1249 21.5697 25.4604 21.9874 24.6297C22.8647 22.5945 24.4939 20.144 25.956 18.1089C27.2092 16.2814 28.7548 14.4954 29.6321 13.7478Z" fill="#047FFA"/>
<path d="M37.5275 27.8278C36.9426 27.6617 36.0654 26.7479 36.0654 26.1249C36.0654 24.0482 41.2872 16.2814 43.5847 14.4539C43.7518 14.2877 43.9607 14.2462 44.1278 14.2462C44.9633 14.2462 46.3836 15.6583 46.3836 16.5721C46.3836 16.6967 46.2165 16.5306 45.9241 16.489C44.4202 16.3229 39.4909 24.4636 39.0731 25.9173C41.2454 25.3358 46.5089 20.3932 48.6812 18.275C48.9319 18.1088 49.099 18.3996 49.0154 18.4827C45.8823 21.8469 40.201 27.6617 37.9452 27.8278C37.8199 27.8694 37.6946 27.8694 37.5275 27.8278ZM49.5167 9.92664C49.8509 10.3004 50.0598 10.7989 49.8927 10.7989C49.8091 10.7989 49.5167 10.6743 49.1407 10.8404C48.5141 11.0896 46.8849 12.5433 46.4672 13.1663C45.9659 13.7893 45.2139 13.0417 45.1722 12.4187C45.1304 11.3803 46.5089 9.05442 47.428 8.76368C48.2635 8.63908 49.0572 9.38669 49.5167 9.92664Z" fill="#047FFA"/>
<path d="M52.7751 13.7062C52.984 13.5401 53.1928 13.4986 53.3182 13.4986C54.1537 13.4986 55.4904 14.9107 55.4904 15.8245C55.4904 15.9491 55.3651 15.7829 55.1145 15.7414C54.5714 15.6583 53.3182 17.1536 52.1903 18.6073C51.7307 19.1887 50.1851 21.39 50.1851 21.39C53.3182 17.9842 60.0021 13.1248 61.7984 13.7478C62.2579 13.9139 63.5111 15.2845 63.5111 15.8245C63.5111 19.0226 56.493 27.6201 51.5636 27.6201C50.1433 27.6201 48.5141 26.7479 48.5141 25.5434C48.5141 25.3773 48.6812 25.2942 48.6812 25.4188C48.6812 25.7927 49.3078 26.4572 50.0598 26.4572C53.6941 26.4572 60.1274 17.1951 60.5869 15.2015C60.0438 15.2015 54.279 18.0673 48.0128 24.5882C44.5455 29.5307 39.4491 37.173 38.5718 42.4478C38.4047 43.32 38.4047 44.0676 39.1984 44.1507C37.5275 44.7737 35.94 43.4862 36.2325 41.2849C36.9844 35.3039 44.1696 24.1313 49.642 17.1536C50.6446 15.9075 52.0649 14.2462 52.7751 13.7062Z" fill="#047FFA"/>
</g>
<g id="Vector_2">
<path d="M67.6042 10.4251H63.761V7.01931H75.1654V10.4251H71.2803V30.8598H67.5624V10.4251H67.6042Z" fill="white"/>
<path d="M84.8152 27.0803C84.8152 28.2432 84.8152 30.1538 84.8988 30.8598H81.5151C81.4315 30.5276 81.3062 29.78 81.2644 29.4892C80.6378 30.6106 79.6352 31.1506 78.2149 31.1506C75.416 31.1506 74.2881 28.5755 74.2881 25.7927V25.4604C74.2881 20.8917 77.3794 19.6872 80.7213 19.6872C80.8467 19.6872 80.972 19.6872 81.1391 19.6872V17.3198C81.1391 15.8661 80.972 15.0769 79.8441 15.0769C78.758 15.0769 78.5073 15.9076 78.5073 17.0705V17.3613H74.8729V17.1121C74.8729 14.4539 75.9173 12.0865 79.9694 12.0865C83.562 12.0865 84.8152 14.0386 84.8152 17.029V27.0803ZM81.2226 22.47C81.0555 22.47 80.7213 22.47 80.596 22.47C78.925 22.47 77.7971 23.093 77.7971 25.4189V25.7096C77.7971 26.9972 78.2567 27.9525 79.4263 27.9525C80.6796 27.9525 81.2226 27.1218 81.2226 24.6297V22.47Z" fill="white"/>
<path d="M87.9901 30.8598V5.98096H91.708V30.8598H87.9901Z" fill="white"/>
<path d="M98.4337 20.3517H98.5172C99.3109 18.275 100.94 14.6616 101.817 12.3772H105.702L102.319 19.2303L106.078 30.8598H102.026L99.7287 22.8022L98.4337 25.3358V30.8598H94.7575V5.98096H98.4337V20.3517Z" fill="white"/>
</g>
</g>
</g>
</svg>
