<svg width="114" height="48" viewBox="0 0 114 48" fill="none" xmlns="http://www.w3.org/2000/svg">
<g id="TripTalk">
<g id="TripTalk_2">
<g id="Vector">
<path d="M40.1907 1.52984C39.4666 1.48484 38.652 1.48484 37.9279 1.48484C17.8797 1.48484 3.48848 9.85395 2.90016 15.0734C2.58337 17.5481 6.79213 18.898 7.10892 19.078C7.10892 19.078 7.06367 19.123 6.97316 19.123C4.34834 19.078 -0.0867056 17.9081 0.00380547 14.4885C0.230083 6.11935 18.1513 0 36.0272 0C36.8871 0 37.7016 -6.87243e-07 38.5615 0.0449945C46.7527 0.314966 54.763 2.38475 57.7951 4.00457C58.3382 4.27455 58.0214 4.49952 57.6141 4.36454C56.89 3.95958 49.6038 1.8448 40.1907 1.52984Z" fill="#047FFA"/>
<path d="M23.6724 9.35901C25.4827 7.06425 26.9761 5.53441 28.0622 4.49952C29.1936 3.41964 30.0987 2.74471 30.7776 2.74471C32.1805 2.74471 33.8097 3.82459 34.1717 5.44442C33.9002 5.08446 33.5381 4.99447 33.2213 4.99447C32.3162 4.99447 30.5965 6.38932 28.4243 8.95405C21.817 16.7832 10.8651 33.3415 11.1819 35.9062C12.087 35.8612 12.9921 35.5012 14.1235 34.7813C14.033 35.5012 11.3629 37.436 10.3221 37.481C9.64323 37.526 8.9644 37.0761 8.87389 35.9962C8.64761 32.3516 16.9746 17.9081 23.6724 9.35901Z" fill="#047FFA"/>
<path d="M31.1849 14.8934C31.4111 14.7584 31.5922 14.7134 31.7279 14.7134C32.6783 14.7134 34.1265 16.2433 34.1265 17.1882C34.1265 17.3232 33.9907 17.1432 33.7192 17.0982C33.1308 17.0532 31.7732 18.583 30.5965 20.1129C29.5557 21.5077 28.198 23.3075 27.3834 24.7474C29.4651 22.0927 33.3119 18.853 36.6608 16.4233C38.1995 15.3434 39.3308 14.6684 40.1454 14.6234C40.5527 14.5785 42.1819 16.2433 41.9104 16.5582C41.0506 17.4581 37.8374 20.2479 36.525 23.3075C38.3805 23.1725 41.0958 21.4177 43.4944 19.303C43.5396 19.258 43.7659 19.213 43.8111 19.303C43.1323 20.2479 38.4257 24.5674 35.7557 24.5674C35.0768 24.5674 33.9002 23.2175 33.9002 22.7676C33.9002 21.6877 35.1673 19.4379 36.163 18.2681C32.5878 20.3378 30.7776 21.9127 28.1075 24.7924C26.1162 26.9071 23.8082 30.3268 24.6681 30.6867C23.5367 30.9567 22.5863 29.7418 22.3148 28.662C22.2243 28.302 22.4505 27.5821 22.9031 26.6822C23.8535 24.4774 25.6184 21.8227 27.2024 19.6179C28.56 17.6381 30.2345 15.7033 31.1849 14.8934Z" fill="#047FFA"/>
<path d="M39.7381 30.1468C39.1046 29.9668 38.1542 28.9769 38.1542 28.302C38.1542 26.0522 43.8111 17.6381 46.3002 15.6583C46.4812 15.4784 46.7075 15.4334 46.8885 15.4334C47.7936 15.4334 49.3323 16.9632 49.3323 17.9531C49.3323 18.0881 49.1513 17.9081 48.8345 17.8631C47.2053 17.6831 41.8652 26.5022 41.4126 28.077C43.7659 27.4471 49.4681 22.0927 51.8214 19.7979C52.0929 19.6179 52.2739 19.9329 52.1834 20.0229C48.7892 23.6675 42.6345 29.9668 40.1907 30.1468C40.0549 30.1918 39.9192 30.1918 39.7381 30.1468ZM52.7265 10.7539C53.0885 11.1588 53.3148 11.6988 53.1338 11.6988C53.0433 11.6988 52.7265 11.5638 52.3192 11.7438C51.6403 12.0137 49.8754 13.5886 49.4228 14.2635C48.8798 14.9384 48.0652 14.1285 48.0199 13.4536C47.9747 12.3287 49.4681 9.80896 50.4637 9.49399C51.3688 9.35901 52.2287 10.1689 52.7265 10.7539Z" fill="#047FFA"/>
<path d="M56.2564 14.8484C56.4827 14.6684 56.709 14.6234 56.8447 14.6234C57.7498 14.6234 59.198 16.1533 59.198 17.1432C59.198 17.2782 59.0622 17.0982 58.7907 17.0532C58.2024 16.9632 56.8447 18.583 55.6228 20.1579C55.125 20.7878 53.4506 23.1725 53.4506 23.1725C56.8447 19.4829 64.0856 14.2185 66.0316 14.8934C66.5294 15.0734 67.8871 16.5582 67.8871 17.1432C67.8871 20.6078 60.2841 29.9218 54.944 29.9218C53.4053 29.9218 51.6403 28.9769 51.6403 27.6721C51.6403 27.4921 51.8214 27.4021 51.8214 27.5371C51.8214 27.942 52.5002 28.662 53.3148 28.662C57.252 28.662 64.2214 18.628 64.7192 16.4683C64.1309 16.4683 57.8856 19.5729 51.0973 26.6372C47.3411 31.9916 41.8199 40.2707 40.8695 45.9851C40.6885 46.93 40.6885 47.7399 41.5484 47.8299C39.7381 48.5049 38.0184 47.11 38.3352 44.7253C39.1498 38.2459 46.9338 26.1422 52.8622 18.583C53.9484 17.2332 55.4871 15.4334 56.2564 14.8484Z" fill="#047FFA"/>
</g>
<g id="Vector_2">
<path d="M72.3209 11.294H68.1574V7.60437H80.5122V11.294H76.3034V33.4316H72.2757V11.294H72.3209Z" fill="#0A0A0A"/>
<path d="M90.9662 29.3371C90.9662 30.5969 90.9662 32.6667 91.0567 33.4316H87.391C87.3005 33.0717 87.1647 32.2617 87.1195 31.9468C86.4406 33.1617 85.3545 33.7466 83.8158 33.7466C80.7837 33.7466 79.5618 30.9569 79.5618 27.9422V27.5822C79.5618 22.6328 82.9107 21.3279 86.5312 21.3279C86.6669 21.3279 86.8027 21.3279 86.9837 21.3279V18.7632C86.9837 17.1884 86.8027 16.3334 85.5808 16.3334C84.4042 16.3334 84.1326 17.2333 84.1326 18.4932V18.8082H80.1954V18.5382C80.1954 15.6585 81.3268 13.0938 85.7166 13.0938C89.6085 13.0938 90.9662 15.2086 90.9662 18.4482V29.3371ZM87.0742 24.3426C86.8932 24.3426 86.5312 24.3426 86.3954 24.3426C84.5852 24.3426 83.3633 25.0175 83.3633 27.5373V27.8522C83.3633 29.2471 83.8611 30.282 85.1282 30.282C86.4859 30.282 87.0742 29.3821 87.0742 26.6823V24.3426Z" fill="#0A0A0A"/>
<path d="M94.4056 33.4316V6.47949H98.4334V33.4316H94.4056Z" fill="#0A0A0A"/>
<path d="M105.72 22.0478H105.81C106.67 19.7981 108.435 15.8835 109.385 13.4088H113.594L109.928 20.833L114.001 33.4316H109.611L107.122 24.7026L105.72 27.4473V33.4316H101.737V6.47949H105.72V22.0478Z" fill="#0A0A0A"/>
</g>
</g>
</g>
</svg>
